ply 
format ascii 1.0 
comment author: Chi Wang 
element vertex 154 
property float x 
property float y 
property float z 
element face 194 
property list uchar int vertex_indices
end_header
-0.500000 -0.500000 0.000000 
0.500000 -0.500000 0.000000 
0.500000 0.500000 0.000000 
-0.500000 0.500000 0.000000 
-0.407800 -0.920613 0.013457 
-0.697244 -1.120390 0.679301 
-0.399164 -0.805060 1.542470 
-0.530080 -1.024713 2.307381 
-0.437121 -0.814139 3.168714 
-0.287295 -0.900724 -0.185722 
-0.163504 -0.998186 0.760150 
-0.380879 -0.845778 1.311606 
-0.101088 -1.146190 2.346520 
-0.054321 -1.132560 2.923916 
0.068572 -1.113192 0.025230 
-0.155369 -1.022239 0.797015 
0.097737 -1.053909 1.587202 
-0.084399 -0.960969 2.405940 
-0.053976 -1.028394 3.117033 
0.271519 -0.912876 0.009606 
0.185893 -1.009219 0.804181 
0.119711 -1.041711 1.434963 
0.384251 -1.117873 2.353082 
0.442632 -0.808996 2.821707 
0.552428 -0.913070 -0.098522 
0.318323 -1.022053 0.589337 
0.662507 -1.102023 1.619185 
0.629911 -0.966426 2.287539 
0.508737 -0.936727 3.039541 
-0.559284 0.918292 2.812341 
-0.687585 0.985987 2.343843 
-0.377184 0.934467 1.641758 
-0.358584 1.099456 0.881278 
-0.390040 0.964160 -0.194315 
-0.420428 0.927256 2.847537 
-0.211408 1.025063 2.154943 
-0.445576 1.006526 1.656143 
-0.201282 1.055472 0.899041 
-0.130189 1.061376 -0.166474 
0.154045 1.030042 3.088118 
0.064399 0.893297 2.430351 
0.158008 0.805887 1.671842 
0.056907 0.848868 0.752822 
0.133916 0.959189 -0.180037 
0.156912 1.130702 3.098138 
0.251349 0.845629 2.365359 
0.439712 1.025590 1.355898 
0.187683 0.870654 0.795544 
0.235904 1.138733 -0.195951 
0.516680 0.880405 3.054490 
0.406114 0.967870 2.285325 
0.527060 1.144533 1.610100 
0.365732 1.135082 0.901648 
0.564680 1.178822 0.026632 
0.634442 -0.931166 3.182451 
0.568122 -0.575789 2.999079 
0.539140 0.169167 2.838003 
0.323345 0.486828 3.057774 
0.571836 0.897865 2.826012 
0.683152 -0.912457 2.323651 
0.592037 -0.322763 2.307854 
0.418957 -0.024359 2.176502 
0.557460 0.379891 2.193484 
0.450956 0.949867 2.157497 
0.444599 -0.910399 1.598458 
0.501646 -0.676904 1.391288 
0.557255 -0.190109 1.497430 
0.657782 0.305192 1.552484 
0.670002 0.801243 1.641611 
0.683267 -1.004083 0.872645 
0.638034 -0.583707 0.867559 
0.366431 0.152666 0.894625 
0.513276 0.475449 0.849055 
0.441734 1.192039 0.778952 
0.377094 -0.852605 0.020255 
0.514952 -0.661950 0.048921 
0.348684 0.025734 -0.130481 
0.670281 0.585066 -0.035465 
0.691751 1.024403 0.063806 
-0.632509 -1.001771 0.154482 
-0.683517 -0.534579 -0.171337 
-0.594066 0.122253 0.084603 
-0.484372 0.610623 -0.195020 
-0.693390 1.049454 -0.145209 
-0.683540 -1.083502 0.886393 
-0.380287 -0.374899 0.946488 
-0.607431 -0.172115 0.711439 
-0.473486 0.357081 0.933540 
-0.457181 1.154712 0.659670 
-0.685105 -0.843207 1.606777 
-0.548894 -0.466510 1.394972 
-0.654545 -0.188098 1.629824 
-0.420868 0.448334 1.688862 
-0.369103 1.007744 1.352036 
-0.565166 -1.055791 2.285537 
-0.605733 -0.556395 2.418448 
-0.684579 0.171906 2.055271 
-0.366411 0.468135 2.199978 
-0.325536 0.932662 2.419088 
-0.523466 -0.823782 3.014615 
-0.348525 -0.300477 3.130004 
-0.651607 -0.029373 3.062283 
-0.608175 0.369540 2.901516 
-0.639581 0.959371 3.086635 
-0.644087 -0.897104 2.821379 
-0.375742 -0.514418 2.841471 
-0.612980 -0.102973 2.966844 
-0.411008 0.509401 2.930792 
-0.404306 0.986200 2.977778 
-0.365014 -1.129937 3.178201 
-0.415242 -0.517945 3.132408 
-0.150883 0.152063 2.894628 
-0.298130 0.387450 3.098813 
-0.212888 0.944830 3.178881 
0.191789 -0.967132 3.185056 
-0.002971 -0.477014 3.105278 
0.165907 0.089841 2.837147 
-0.144766 0.319430 2.933069 
0.040455 1.052232 3.061533 
0.203925 -0.892120 2.836113 
0.140334 -0.510132 2.804938 
0.422509 0.129159 3.117945 
0.078732 0.327357 2.833249 
0.332673 0.805645 2.912667 
0.635682 -1.171890 3.133114 
0.524633 -0.617737 2.915043 
0.625817 -0.005750 2.929255 
0.323066 0.471995 3.153459 
0.395283 1.185536 3.132907 
-0.393261 -1.157355 -0.101172 
-0.609808 -0.361324 -0.118516 
-0.567439 0.169863 0.173787 
-0.688498 0.558564 0.177144 
-0.371240 0.944523 0.128884 
-0.434027 -0.911578 0.108504 
-0.305394 -0.546801 0.155030 
-0.137638 -0.176261 0.038561 
-0.207402 0.318332 -0.063672 
-0.139274 1.073718 0.114758 
0.050801 -1.190744 0.095137 
0.166875 -0.648678 0.194432 
0.013405 0.020798 0.151013 
0.148211 0.594649 -0.151722 
-0.001776 0.936847 0.033100 
0.084829 -0.911900 0.064583 
0.279645 -0.303509 -0.009866 
0.265533 0.089355 -0.050103 
0.093930 0.562719 -0.038160 
0.251992 0.933384 -0.003348 
0.600945 -0.905262 -0.078446 
0.378104 -0.535727 0.074337 
0.585445 0.051957 0.107817 
0.636238 0.554697 0.196655 
0.556645 0.865085 -0.022532 
3 0 1 2 
3 2 3 0 
3 4 9 5 
3 5 9 10 
3 5 10 6 
3 6 10 11 
3 6 11 7 
3 7 11 12 
3 7 12 8 
3 8 12 13 
3 9 14 10 
3 10 14 15 
3 10 15 11 
3 11 15 16 
3 11 16 12 
3 12 16 17 
3 12 17 13 
3 13 17 18 
3 14 19 15 
3 15 19 20 
3 15 20 16 
3 16 20 21 
3 16 21 17 
3 17 21 22 
3 17 22 18 
3 18 22 23 
3 19 24 20 
3 20 24 25 
3 20 25 21 
3 21 25 26 
3 21 26 22 
3 22 26 27 
3 22 27 23 
3 23 27 28 
3 29 34 30 
3 30 34 35 
3 30 35 31 
3 31 35 36 
3 31 36 32 
3 32 36 37 
3 32 37 33 
3 33 37 38 
3 34 39 35 
3 35 39 40 
3 35 40 36 
3 36 40 41 
3 36 41 37 
3 37 41 42 
3 37 42 38 
3 38 42 43 
3 39 44 40 
3 40 44 45 
3 40 45 41 
3 41 45 46 
3 41 46 42 
3 42 46 47 
3 42 47 43 
3 43 47 48 
3 44 49 45 
3 45 49 50 
3 45 50 46 
3 46 50 51 
3 46 51 47 
3 47 51 52 
3 47 52 48 
3 48 52 53 
3 54 59 55 
3 55 59 60 
3 55 60 56 
3 56 60 61 
3 56 61 57 
3 57 61 62 
3 57 62 58 
3 58 62 63 
3 59 64 60 
3 60 64 65 
3 60 65 61 
3 61 65 66 
3 61 66 62 
3 62 66 67 
3 62 67 63 
3 63 67 68 
3 64 69 65 
3 65 69 70 
3 65 70 66 
3 66 70 71 
3 66 71 67 
3 67 71 72 
3 67 72 68 
3 68 72 73 
3 69 74 70 
3 70 74 75 
3 70 75 71 
3 71 75 76 
3 71 76 72 
3 72 76 77 
3 72 77 73 
3 73 77 78 
3 79 84 80 
3 80 84 85 
3 80 85 81 
3 81 85 86 
3 81 86 82 
3 82 86 87 
3 82 87 83 
3 83 87 88 
3 84 89 85 
3 85 89 90 
3 85 90 86 
3 86 90 91 
3 86 91 87 
3 87 91 92 
3 87 92 88 
3 88 92 93 
3 89 94 90 
3 90 94 95 
3 90 95 91 
3 91 95 96 
3 91 96 92 
3 92 96 97 
3 92 97 93 
3 93 97 98 
3 94 99 95 
3 95 99 100 
3 95 100 96 
3 96 100 101 
3 96 101 97 
3 97 101 102 
3 97 102 98 
3 98 102 103 
3 104 109 105 
3 105 109 110 
3 105 110 106 
3 106 110 111 
3 106 111 107 
3 107 111 112 
3 107 112 108 
3 108 112 113 
3 109 114 110 
3 110 114 115 
3 110 115 111 
3 111 115 116 
3 111 116 112 
3 112 116 117 
3 112 117 113 
3 113 117 118 
3 114 119 115 
3 115 119 120 
3 115 120 116 
3 116 120 121 
3 116 121 117 
3 117 121 122 
3 117 122 118 
3 118 122 123 
3 119 124 120 
3 120 124 125 
3 120 125 121 
3 121 125 126 
3 121 126 122 
3 122 126 127 
3 122 127 123 
3 123 127 128 
3 129 134 130 
3 130 134 135 
3 130 135 131 
3 131 135 136 
3 131 136 132 
3 132 136 137 
3 132 137 133 
3 133 137 138 
3 134 139 135 
3 135 139 140 
3 135 140 136 
3 136 140 141 
3 136 141 137 
3 137 141 142 
3 137 142 138 
3 138 142 143 
3 139 144 140 
3 140 144 145 
3 140 145 141 
3 141 145 146 
3 141 146 142 
3 142 146 147 
3 142 147 143 
3 143 147 148 
3 144 149 145 
3 145 149 150 
3 145 150 146 
3 146 150 151 
3 146 151 147 
3 147 151 152 
3 147 152 148 
3 148 152 153 
