ply 
format ascii 1.0 
comment author: Chi Wang 
element vertex 54 
property float x 
property float y 
property float z 
element face 48 
property list uchar int vertex_indices
end_header
-0.422615 -0.445067 -0.066597 
-0.479801 -0.089966 -0.052097 
-0.536311 0.439093 0.030997 
0.067925 -0.474263 0.036552 
0.056780 -0.054684 -0.044230 
-0.048686 0.451018 -0.006154 
0.523669 -0.412907 -0.074582 
0.422416 0.046763 -0.066632 
0.484296 0.518774 -0.060965 
-0.413235 -0.570970 0.933853 
-0.561383 -0.079900 1.074658 
-0.445052 0.491164 0.967871 
-0.046364 -0.587159 1.025380 
-0.017065 -0.067610 1.009341 
-0.011732 0.483699 0.953158 
0.583305 -0.554114 1.046323 
0.491578 -0.067304 0.943589 
0.543775 0.482479 0.977484 
-0.551388 -0.456521 0.048861 
-0.527387 -0.557770 0.478624 
-0.435987 -0.511625 0.918250 
-0.072658 -0.459753 0.058761 
-0.017203 -0.459132 0.571715 
-0.074399 -0.445324 1.050164 
0.412252 -0.575871 0.005667 
0.529691 -0.422356 0.428875 
0.531840 -0.496029 0.998279 
-0.417674 0.440316 1.043396 
-0.437902 0.420476 0.526074 
-0.460322 0.483722 0.030434 
-0.045779 0.494443 1.021584 
-0.083538 0.431314 0.479132 
-0.089823 0.502093 0.000167 
0.445523 0.474645 0.983209 
0.442493 0.491362 0.499897 
0.412889 0.423680 0.004531 
0.501939 -0.435308 0.938712 
0.518977 0.025425 0.913512 
0.493314 0.436492 1.084237 
0.581476 -0.545272 0.548854 
0.507658 -0.016633 0.538039 
0.511324 0.487874 0.482416 
0.566905 -0.439802 0.052029 
0.419849 0.014300 0.068782 
0.474060 0.576768 -0.076642 
-0.570855 -0.450186 -0.089612 
-0.581473 -0.049073 0.047965 
-0.510167 0.555046 -0.071164 
-0.581730 -0.537705 0.497099 
-0.504297 0.034866 0.457440 
-0.488687 0.514264 0.560777 
-0.556390 -0.483210 0.913357 
-0.427761 0.070204 1.041685 
-0.578134 0.500335 0.972654 
3 0 3 1 
3 1 3 4 
3 1 4 2 
3 2 4 5 
3 3 6 4 
3 4 6 7 
3 4 7 5 
3 5 7 8 
3 9 12 10 
3 10 12 13 
3 10 13 11 
3 11 13 14 
3 12 15 13 
3 13 15 16 
3 13 16 14 
3 14 16 17 
3 0 3 19 
3 19 3 22 
3 19 22 9 
3 9 22 12 
3 3 6 22 
3 22 6 25 
3 22 25 12 
3 12 25 15 
3 11 14 28 
3 28 14 31 
3 28 31 2 
3 2 31 5 
3 14 17 31 
3 31 17 34 
3 31 34 5 
3 5 34 8 
3 15 25 16 
3 16 25 40 
3 16 40 17 
3 17 40 34 
3 25 6 40 
3 40 6 7 
3 40 7 34 
3 34 7 8 
3 0 19 1 
3 1 19 49 
3 1 49 2 
3 2 49 28 
3 19 9 49 
3 49 9 10 
3 49 10 28 
3 28 10 11 
