ply 
format ascii 1.0 
comment author: Chi Wang 
element vertex 325 
property float x 
property float y 
property float z 
element face 416 
property list uchar int vertex_indices
end_header
-0.478401 -0.504989 0.028690 
-0.485661 -0.269191 0.023897 
-0.513963 0.015448 0.029094 
-0.519322 0.270472 0.005674 
-0.497572 0.529013 0.025018 
-0.261418 -0.518475 0.006623 
-0.230307 -0.274466 -0.020832 
-0.221513 0.028966 -0.017410 
-0.235811 0.235823 -0.020181 
-0.266538 0.495499 -0.016423 
0.004572 -0.474440 0.005953 
0.013804 -0.220606 0.005025 
-0.024614 0.023150 -0.024986 
0.019017 0.256154 -0.011649 
0.029701 0.499141 -0.000203 
0.221433 -0.523632 -0.009050 
0.278532 -0.270906 0.005312 
0.279508 -0.002759 -0.010420 
0.275858 0.253463 0.020261 
0.245876 0.490172 -0.021455 
0.515239 -0.521969 0.021569 
0.528374 -0.241812 -0.002464 
0.488684 -0.029980 -0.029602 
0.473079 0.236369 -0.012927 
0.472006 0.471563 0.002623 
0.083032 -0.258510 -0.045772 
0.090148 -0.197190 -0.032186 
0.004095 -0.198008 -0.004059 
-0.055773 -0.254067 0.060510 
-0.103751 -0.275286 0.155992 
0.148743 -0.199918 -0.033811 
0.103639 -0.228960 0.013191 
-0.016932 -0.205547 -0.012121 
-0.069521 -0.230497 0.109480 
-0.129491 -0.213331 0.140804 
0.149216 -0.106227 -0.043989 
0.052997 -0.130601 -0.063230 
-0.066826 -0.170040 0.029752 
-0.066602 -0.146066 0.034418 
-0.092099 -0.138005 0.095971 
0.123459 -0.070326 -0.064670 
0.018379 -0.145773 -0.031035 
-0.046973 -0.083393 0.028901 
-0.073678 -0.140639 0.100223 
-0.112780 -0.114887 0.085451 
0.096232 -0.045330 -0.049809 
0.047204 -0.081847 -0.020417 
-0.021162 -0.099021 0.072295 
-0.040578 -0.104301 0.059261 
-0.116476 -0.131457 0.119713 
0.518060 -0.163509 0.542711 
0.428056 -0.137971 0.507340 
0.417444 -0.217836 0.562372 
0.359137 -0.226963 0.572972 
0.294961 -0.145950 0.677549 
0.479396 -0.173147 0.516878 
0.471737 -0.116675 0.555417 
0.407584 -0.118727 0.629093 
0.335177 -0.130512 0.620113 
0.287923 -0.141515 0.709032 
0.463335 -0.072675 0.502339 
0.405933 -0.132301 0.519752 
0.444903 -0.154080 0.609589 
0.378882 -0.149491 0.646250 
0.288194 -0.095054 0.659290 
0.500117 -0.032977 0.470321 
0.457742 -0.118629 0.557009 
0.364187 -0.115874 0.581333 
0.299324 -0.048435 0.638447 
0.330002 -0.071321 0.659878 
0.455537 -0.034972 0.530972 
0.427188 -0.041036 0.618872 
0.425716 -0.030919 0.566634 
0.325620 -0.073783 0.647676 
0.301013 -0.061040 0.646709 
0.112019 -0.201341 -0.093076 
0.213549 -0.167025 0.045539 
0.356494 -0.240200 0.243182 
0.408953 -0.221102 0.402293 
0.497610 -0.214846 0.582067 
0.102297 -0.151441 -0.011134 
0.235223 -0.122370 0.112578 
0.280097 -0.213587 0.224180 
0.397940 -0.192671 0.367607 
0.466247 -0.119168 0.527143 
0.075739 -0.111373 -0.031941 
0.179208 -0.177897 0.122076 
0.327158 -0.155264 0.209707 
0.364236 -0.096720 0.366090 
0.519122 -0.055799 0.507702 
0.158357 -0.152777 -0.023899 
0.186087 -0.129401 0.137092 
0.271780 -0.066477 0.212573 
0.396179 -0.102521 0.363452 
0.451597 -0.095198 0.485244 
0.111650 -0.121878 -0.036029 
0.195557 -0.096020 0.076599 
0.263087 -0.092406 0.205479 
0.417327 -0.088465 0.374691 
0.452025 -0.065020 0.537353 
0.332895 -0.145052 0.657588 
0.227800 -0.219667 0.492019 
0.097714 -0.163224 0.396651 
-0.011607 -0.262737 0.215702 
-0.134471 -0.223440 0.091877 
0.249871 -0.121143 0.630326 
0.171222 -0.131521 0.536495 
0.083682 -0.190185 0.353877 
-0.002834 -0.221159 0.235810 
-0.102066 -0.187771 0.099620 
0.324286 -0.139419 0.645330 
0.153586 -0.132098 0.509651 
0.060964 -0.100147 0.377932 
0.020989 -0.152488 0.276631 
-0.063855 -0.126530 0.113871 
0.261376 -0.116265 0.650992 
0.209032 -0.057104 0.481268 
0.120001 -0.155488 0.349992 
0.000488 -0.087302 0.251518 
-0.105801 -0.093416 0.052101 
0.248227 -0.060854 0.664406 
0.182644 -0.044763 0.499245 
0.038341 -0.093828 0.356484 
0.043861 -0.082294 0.245923 
-0.121478 -0.068605 0.051481 
0.486526 -0.068028 0.461033 
0.438720 -0.059548 0.544167 
0.387019 -0.049590 0.553303 
0.347747 -0.041736 0.633961 
0.268454 -0.032401 0.656594 
0.362823 -0.052807 0.387377 
0.378950 -0.014900 0.438042 
0.265179 -0.051221 0.446502 
0.221036 -0.048986 0.500391 
0.196622 -0.041608 0.568648 
0.323759 -0.094298 0.254524 
0.260926 -0.106294 0.294907 
0.131802 -0.077828 0.318463 
0.182899 -0.082977 0.353148 
0.086659 -0.036634 0.334585 
0.188843 -0.085720 0.085993 
0.103078 -0.055629 0.122196 
0.092931 -0.082787 0.132500 
0.038976 -0.082964 0.210252 
0.004454 -0.129475 0.290124 
0.102811 -0.135957 -0.035876 
0.097157 -0.082419 0.001773 
-0.071133 -0.075587 0.010997 
-0.066384 -0.091621 0.104913 
-0.107583 -0.072356 0.113137 
0.151000 -0.180537 -0.053836 
0.042390 -0.230401 0.052923 
0.057257 -0.234375 0.047685 
0.002887 -0.220903 0.074926 
-0.105810 -0.264345 0.084416 
0.186288 -0.177886 0.159911 
0.162704 -0.245683 0.166316 
0.066651 -0.176706 0.205137 
0.007553 -0.225981 0.180408 
0.034871 -0.211296 0.225853 
0.285924 -0.199180 0.211247 
0.274080 -0.156703 0.242391 
0.175685 -0.205316 0.282237 
0.166440 -0.157766 0.313120 
0.082675 -0.215877 0.440966 
0.386218 -0.191130 0.373824 
0.314123 -0.183536 0.387312 
0.295162 -0.202084 0.464249 
0.224217 -0.162841 0.533286 
0.178048 -0.158588 0.489770 
0.500603 -0.191895 0.535363 
0.508490 -0.203802 0.554537 
0.412363 -0.210788 0.548800 
0.384070 -0.173510 0.603388 
0.294801 -0.152811 0.697563 
-0.324672 0.284438 -0.097899 
-0.222297 0.287190 -0.048723 
-0.060809 0.326384 0.002524 
-0.025223 0.326850 0.041272 
0.095785 0.374476 0.038265 
-0.250627 0.100959 -0.125849 
-0.242755 0.130058 -0.082178 
-0.098553 0.126140 -0.022310 
0.011336 0.129344 -0.008103 
0.161906 0.084262 0.123180 
-0.324412 -0.188928 -0.106726 
-0.128606 -0.172136 -0.050403 
-0.091915 -0.123671 -0.008615 
0.020202 -0.117993 0.032362 
0.136010 -0.080558 0.078491 
-0.257336 -0.376023 -0.151820 
-0.130597 -0.373968 -0.018012 
-0.004233 -0.382415 -0.017933 
0.033591 -0.319071 0.024608 
0.138043 -0.353958 0.107971 
-0.226937 -0.626124 -0.083553 
-0.167603 -0.587566 -0.071946 
-0.069515 -0.589747 -0.011452 
0.037352 -0.570800 0.039244 
0.173453 -0.606174 0.048412 
-0.696304 0.259712 0.681669 
-0.576249 0.326597 0.814085 
-0.459883 0.297990 0.769217 
-0.317624 0.344936 0.857324 
-0.236607 0.348428 0.915926 
-0.680597 0.083495 0.699946 
-0.539165 0.038153 0.781411 
-0.477943 0.094088 0.752802 
-0.348857 0.106801 0.818730 
-0.215577 0.129992 0.868472 
-0.660685 -0.196407 0.755116 
-0.580060 -0.172455 0.769973 
-0.404486 -0.167545 0.848198 
-0.302348 -0.144774 0.850895 
-0.251713 -0.160341 0.887241 
-0.615212 -0.383840 0.751007 
-0.523595 -0.429957 0.762916 
-0.428027 -0.393857 0.831429 
-0.316528 -0.366558 0.826529 
-0.203125 -0.342459 0.925848 
-0.593729 -0.627244 0.764689 
-0.496621 -0.587513 0.735442 
-0.444235 -0.659522 0.842788 
-0.315557 -0.632146 0.828747 
-0.206427 -0.604179 0.955574 
-0.357774 0.311572 -0.117909 
-0.383946 0.357947 0.118866 
-0.486395 0.270616 0.308542 
-0.577181 0.340343 0.545107 
-0.701664 0.250578 0.752662 
-0.312071 0.112682 -0.130823 
-0.382761 0.090309 0.060544 
-0.505361 0.067763 0.249514 
-0.637489 0.058592 0.519627 
-0.695511 0.074253 0.719358 
-0.317993 -0.117698 -0.079128 
-0.402160 -0.135253 0.040785 
-0.506416 -0.143569 0.276923 
-0.584091 -0.165108 0.515205 
-0.635796 -0.146957 0.768227 
-0.271234 -0.432026 -0.085122 
-0.393461 -0.389462 0.119051 
-0.491498 -0.430708 0.331100 
-0.542717 -0.408875 0.529293 
-0.645157 -0.423240 0.712961 
-0.199018 -0.652401 -0.136299 
-0.375917 -0.603657 0.063494 
-0.449263 -0.607221 0.331653 
-0.520498 -0.597551 0.540676 
-0.636158 -0.664846 0.703860 
-0.282122 0.347455 0.862064 
-0.137474 0.287979 0.684338 
-0.114028 0.310509 0.467734 
-0.001462 0.323272 0.278528 
0.062363 0.332123 0.105328 
-0.250993 0.134100 0.914413 
-0.196484 0.125104 0.676691 
-0.074005 0.077654 0.518345 
-0.001142 0.102417 0.288241 
0.095758 0.067554 0.053787 
-0.197092 -0.098209 0.883399 
-0.101958 -0.170993 0.723475 
-0.003769 -0.148858 0.493869 
0.066069 -0.122404 0.299278 
0.132183 -0.116737 0.091983 
-0.213588 -0.386556 0.909840 
-0.105065 -0.397993 0.662091 
-0.048570 -0.412623 0.461197 
0.099440 -0.363717 0.278350 
0.163324 -0.325061 0.086107 
-0.183010 -0.655560 0.863510 
-0.118931 -0.621546 0.649024 
-0.002160 -0.648477 0.529672 
0.074624 -0.570088 0.272837 
0.131227 -0.566610 0.066233 
-0.632714 -0.666191 0.743605 
-0.515695 -0.613986 0.739228 
-0.369655 -0.648142 0.840794 
-0.248883 -0.579796 0.833756 
-0.173045 -0.621883 0.901891 
-0.501145 -0.686758 0.496911 
-0.400445 -0.648543 0.554739 
-0.272998 -0.664804 0.618054 
-0.153451 -0.591246 0.656390 
-0.072625 -0.588594 0.746719 
-0.384367 -0.617645 0.270701 
-0.327708 -0.628844 0.403535 
-0.167950 -0.591788 0.378700 
-0.169525 -0.588654 0.469887 
-0.055030 -0.556230 0.477210 
-0.318781 -0.671306 0.139675 
-0.241103 -0.601897 0.184323 
-0.114367 -0.650595 0.191184 
-0.018438 -0.609488 0.294813 
0.058621 -0.622982 0.303094 
-0.259643 -0.576560 -0.094134 
-0.188423 -0.614099 -0.056073 
-0.063838 -0.627953 0.013358 
0.048468 -0.615353 0.034896 
0.164362 -0.589933 0.104734 
-0.308191 0.294766 -0.066352 
-0.267900 0.345417 -0.058436 
-0.094490 0.334699 -0.055221 
0.009192 0.349313 -0.012441 
0.119364 0.349052 0.097707 
-0.365571 0.358982 0.064312 
-0.327420 0.326450 0.088172 
-0.186432 0.286294 0.161100 
-0.049538 0.353384 0.236132 
0.013643 0.367491 0.304340 
-0.457068 0.337168 0.297359 
-0.367952 0.274444 0.384681 
-0.265676 0.340931 0.391546 
-0.216975 0.316627 0.443596 
-0.068490 0.385015 0.520867 
-0.637106 0.327729 0.473894 
-0.493331 0.256698 0.598329 
-0.349571 0.331526 0.628650 
-0.288362 0.305875 0.611556 
-0.193711 0.339045 0.662261 
-0.694363 0.286277 0.755231 
-0.563562 0.271428 0.787698 
-0.521467 0.261775 0.809091 
-0.370024 0.358940 0.813037 
-0.236991 0.371013 0.911616 
3 0 5 1 
3 1 5 6 
3 1 6 2 
3 2 6 7 
3 2 7 3 
3 3 7 8 
3 3 8 4 
3 4 8 9 
3 5 10 6 
3 6 10 11 
3 6 11 7 
3 7 11 12 
3 7 12 8 
3 8 12 13 
3 8 13 9 
3 9 13 14 
3 10 15 11 
3 11 15 16 
3 11 16 12 
3 12 16 17 
3 12 17 13 
3 13 17 18 
3 13 18 14 
3 14 18 19 
3 15 20 16 
3 16 20 21 
3 16 21 17 
3 17 21 22 
3 17 22 18 
3 18 22 23 
3 18 23 19 
3 19 23 24 
3 11 11 11 
3 11 11 11 
3 11 11 11 
3 11 11 11 
3 11 11 6 
3 6 11 11 
3 6 11 11 
3 11 11 11 
3 11 11 11 
3 11 11 11 
3 11 11 11 
3 11 11 11 
3 11 11 11 
3 11 11 11 
3 11 11 11 
3 11 11 11 
3 11 11 11 
3 11 11 11 
3 11 11 11 
3 11 11 11 
3 11 11 11 
3 11 11 11 
3 11 11 11 
3 11 11 11 
3 11 12 11 
3 11 12 11 
3 11 11 11 
3 11 11 11 
3 11 11 11 
3 11 11 11 
3 11 11 11 
3 11 11 11 
3 50 55 51 
3 51 55 56 
3 51 56 52 
3 52 56 57 
3 52 57 53 
3 53 57 58 
3 53 58 54 
3 54 58 59 
3 55 60 56 
3 56 60 61 
3 56 61 57 
3 57 61 62 
3 57 62 58 
3 58 62 63 
3 58 63 59 
3 59 63 64 
3 60 65 61 
3 61 65 66 
3 61 66 62 
3 62 66 67 
3 62 67 63 
3 63 67 68 
3 63 68 64 
3 64 68 69 
3 65 70 66 
3 66 70 71 
3 66 71 67 
3 67 71 72 
3 67 72 68 
3 68 72 73 
3 68 73 69 
3 69 73 74 
3 11 11 16 
3 16 11 16 
3 16 16 77 
3 77 16 82 
3 77 82 78 
3 78 82 83 
3 78 83 50 
3 50 83 55 
3 11 11 16 
3 16 11 16 
3 16 16 82 
3 82 16 87 
3 82 87 83 
3 83 87 88 
3 83 88 55 
3 55 88 60 
3 11 11 16 
3 16 11 91 
3 16 91 87 
3 87 91 92 
3 87 92 88 
3 88 92 93 
3 88 93 60 
3 60 93 65 
3 11 12 91 
3 91 12 17 
3 91 17 92 
3 92 17 97 
3 92 97 93 
3 93 97 98 
3 93 98 65 
3 65 98 70 
3 54 59 101 
3 101 59 106 
3 101 106 102 
3 102 106 107 
3 102 107 103 
3 103 107 108 
3 103 108 11 
3 11 108 11 
3 59 64 106 
3 106 64 111 
3 106 111 107 
3 107 111 112 
3 107 112 108 
3 108 112 113 
3 108 113 11 
3 11 113 11 
3 64 69 111 
3 111 69 116 
3 111 116 112 
3 112 116 117 
3 112 117 113 
3 113 117 118 
3 113 118 11 
3 11 118 11 
3 69 74 116 
3 116 74 121 
3 116 121 117 
3 117 121 122 
3 117 122 118 
3 118 122 123 
3 118 123 11 
3 11 123 11 
3 70 98 71 
3 71 98 131 
3 71 131 72 
3 72 131 132 
3 72 132 73 
3 73 132 133 
3 73 133 74 
3 74 133 121 
3 98 97 131 
3 131 97 136 
3 131 136 132 
3 132 136 137 
3 132 137 133 
3 133 137 138 
3 133 138 121 
3 121 138 122 
3 97 17 136 
3 136 17 141 
3 136 141 137 
3 137 141 142 
3 137 142 138 
3 138 142 143 
3 138 143 122 
3 122 143 123 
3 17 12 141 
3 141 12 11 
3 141 11 142 
3 142 11 11 
3 142 11 143 
3 143 11 11 
3 143 11 123 
3 123 11 11 
3 11 16 11 
3 11 16 16 
3 11 16 11 
3 11 16 157 
3 11 157 6 
3 6 157 11 
3 6 11 11 
3 11 11 103 
3 16 77 16 
3 16 77 161 
3 16 161 157 
3 157 161 162 
3 157 162 11 
3 11 162 163 
3 11 163 103 
3 103 163 102 
3 77 78 161 
3 161 78 166 
3 161 166 162 
3 162 166 167 
3 162 167 163 
3 163 167 168 
3 163 168 102 
3 102 168 101 
3 78 50 166 
3 166 50 51 
3 166 51 167 
3 167 51 52 
3 167 52 168 
3 168 52 53 
3 168 53 101 
3 101 53 54 
3 8 7 8 
3 8 7 7 
3 8 7 8 
3 8 7 7 
3 8 7 13 
3 13 7 12 
3 13 12 13 
3 13 12 17 
3 7 6 7 
3 7 6 6 
3 7 6 7 
3 7 6 11 
3 7 11 12 
3 12 11 11 
3 12 11 17 
3 17 11 11 
3 6 6 6 
3 6 6 5 
3 6 5 11 
3 11 5 10 
3 11 10 11 
3 11 10 10 
3 11 10 11 
3 11 10 16 
3 6 5 5 
3 5 5 5 
3 5 5 10 
3 10 5 10 
3 10 10 10 
3 10 10 10 
3 10 10 16 
3 16 10 15 
3 200 205 201 
3 201 205 206 
3 201 206 202 
3 202 206 207 
3 202 207 203 
3 203 207 208 
3 203 208 204 
3 204 208 209 
3 205 210 206 
3 206 210 211 
3 206 211 207 
3 207 211 212 
3 207 212 208 
3 208 212 213 
3 208 213 209 
3 209 213 214 
3 210 215 211 
3 211 215 216 
3 211 216 212 
3 212 216 217 
3 212 217 213 
3 213 217 218 
3 213 218 214 
3 214 218 219 
3 215 220 216 
3 216 220 221 
3 216 221 217 
3 217 221 222 
3 217 222 218 
3 218 222 223 
3 218 223 219 
3 219 223 224 
3 8 7 3 
3 3 7 2 
3 3 2 227 
3 227 2 232 
3 227 232 228 
3 228 232 233 
3 228 233 200 
3 200 233 205 
3 7 6 2 
3 2 6 1 
3 2 1 232 
3 232 1 237 
3 232 237 233 
3 233 237 238 
3 233 238 205 
3 205 238 210 
3 6 6 1 
3 1 6 0 
3 1 0 237 
3 237 0 242 
3 237 242 238 
3 238 242 243 
3 238 243 210 
3 210 243 215 
3 6 5 0 
3 0 5 0 
3 0 0 242 
3 242 0 247 
3 242 247 243 
3 243 247 248 
3 243 248 215 
3 215 248 220 
3 204 209 251 
3 251 209 256 
3 251 256 252 
3 252 256 257 
3 252 257 253 
3 253 257 258 
3 253 258 13 
3 13 258 17 
3 209 214 256 
3 256 214 261 
3 256 261 257 
3 257 261 262 
3 257 262 258 
3 258 262 263 
3 258 263 17 
3 17 263 11 
3 214 219 261 
3 261 219 266 
3 261 266 262 
3 262 266 267 
3 262 267 263 
3 263 267 268 
3 263 268 11 
3 11 268 16 
3 219 224 266 
3 266 224 271 
3 266 271 267 
3 267 271 272 
3 267 272 268 
3 268 272 273 
3 268 273 16 
3 16 273 15 
3 220 248 221 
3 221 248 281 
3 221 281 222 
3 222 281 282 
3 222 282 223 
3 223 282 283 
3 223 283 224 
3 224 283 271 
3 248 247 281 
3 281 247 286 
3 281 286 282 
3 282 286 287 
3 282 287 283 
3 283 287 288 
3 283 288 271 
3 271 288 272 
3 247 0 286 
3 286 0 5 
3 286 5 287 
3 287 5 292 
3 287 292 288 
3 288 292 293 
3 288 293 272 
3 272 293 273 
3 0 5 5 
3 5 5 5 
3 5 5 292 
3 292 5 10 
3 292 10 293 
3 293 10 10 
3 293 10 273 
3 273 10 15 
3 8 3 8 
3 8 3 8 
3 8 8 8 
3 8 8 8 
3 8 8 13 
3 13 8 308 
3 13 308 13 
3 13 308 253 
3 3 227 8 
3 8 227 311 
3 8 311 8 
3 8 311 312 
3 8 312 308 
3 308 312 313 
3 308 313 253 
3 253 313 252 
3 227 228 311 
3 311 228 316 
3 311 316 312 
3 312 316 317 
3 312 317 313 
3 313 317 318 
3 313 318 252 
3 252 318 251 
3 228 200 316 
3 316 200 201 
3 316 201 317 
3 317 201 202 
3 317 202 318 
3 318 202 203 
3 318 203 251 
3 251 203 204 
